<?xml version="1.0" encoding="utf-8"?>
<!-- Generator: Adobe Illustrator 16.0.0, SVG Export Plug-In . SVG Version: 6.00 Build 0)  -->
<!DOCTYPE svg PUBLIC "-//W3C//DTD SVG 1.1//EN" "http://www.w3.org/Graphics/SVG/1.1/DTD/svg11.dtd" [
	<!ENTITY ns_extend "http://ns.adobe.com/Extensibility/1.0/">
	<!ENTITY ns_ai "http://ns.adobe.com/AdobeIllustrator/10.0/">
	<!ENTITY ns_graphs "http://ns.adobe.com/Graphs/1.0/">
	<!ENTITY ns_vars "http://ns.adobe.com/Variables/1.0/">
	<!ENTITY ns_imrep "http://ns.adobe.com/ImageReplacement/1.0/">
	<!ENTITY ns_sfw "http://ns.adobe.com/SaveForWeb/1.0/">
	<!ENTITY ns_custom "http://ns.adobe.com/GenericCustomNamespace/1.0/">
	<!ENTITY ns_adobe_xpath "http://ns.adobe.com/XPath/1.0/">
]>
<svg version="1.1" id="Layer_2" xmlns:x="&ns_extend;" xmlns:i="&ns_ai;" xmlns:graph="&ns_graphs;"
	 xmlns="http://www.w3.org/2000/svg" xmlns:xlink="http://www.w3.org/1999/xlink" x="0px" y="0px" width="479.667px"
	 height="119.666px" viewBox="0 0 479.667 119.666" enable-background="new 0 0 479.667 119.666" xml:space="preserve">
<metadata>
	<sfw  xmlns="&ns_sfw;">
		<slices></slices>
		<sliceSourceBounds  width="471.354" height="111.211" y="-164.383" x="-24.513" bottomLeftOrigin="true"></sliceSourceBounds>
	</sfw>
</metadata>
<g>
	<path d="M138.464,50.949c0-8.319,0-9.812-0.108-11.518c-0.106-1.813-0.532-2.667-2.292-3.04c-0.426-0.106-1.333-0.159-1.813-0.159
		c-0.213,0-0.426-0.106-0.426-0.321c0-0.319,0.266-0.426,0.852-0.426c2.401,0,5.759,0.161,6.026,0.161
		c1.28,0,3.36-0.161,5.813-0.161c8.745,0,10.664,5.333,10.664,8c0,4.372-2.506,6.984-5.011,9.599
		c3.944,1.226,9.223,5.012,9.223,11.251c0,5.707-4.479,11.624-13.598,11.624c-0.585,0-2.293-0.106-3.838-0.16
		c-1.547-0.106-3.041-0.159-3.253-0.159c-0.106,0-1.013,0-2.134,0.053c-1.065,0-2.293,0.106-3.093,0.106
		c-0.585,0-0.852-0.106-0.852-0.427c0-0.158,0.106-0.319,0.426-0.319c0.48,0,1.119-0.106,1.599-0.213
		c1.067-0.213,1.334-1.387,1.547-2.934c0.267-2.24,0.267-6.452,0.267-11.57V50.949z M142.73,52.123c0,0.373,0.104,0.478,0.372,0.586
		c0.319,0.053,1.28,0.213,3.253,0.213c2.986,0,3.733-0.106,4.853-1.386c1.119-1.28,1.919-3.199,1.919-5.386
		c0-4.426-1.973-9.173-7.198-9.173c-0.587,0-1.708,0.054-2.56,0.268c-0.48,0.106-0.639,0.267-0.639,0.586V52.123z M142.73,57.775
		c0,4.104,0,10.718,0.052,11.518c0.161,2.612,0.161,3.359,1.813,4.159c1.441,0.693,3.733,0.8,4.692,0.8
		c2.882,0,7.52-1.547,7.52-7.571c0-3.201-1.065-7.839-5.172-10.666c-1.813-1.226-3.146-1.387-4.425-1.545
		c-0.693-0.106-3.36-0.106-4.159-0.106c-0.215,0-0.32,0.106-0.32,0.372V57.775z"/>
	<path d="M187.152,40.87c10.558,0,18.557,6.454,18.557,17.012c0,10.131-7.52,18.503-18.824,18.503
		c-12.851,0-18.342-9.651-18.342-17.81C168.543,51.269,174.193,40.87,187.152,40.87z M188.219,74.52
		c4.212,0,12.689-2.24,12.689-15.358c0-10.878-6.61-16.583-14.023-16.583c-7.839,0-13.491,4.905-13.491,14.769
		C173.394,67.906,179.739,74.52,188.219,74.52z"/>
	<path d="M230.244,40.87c10.557,0,18.557,6.454,18.557,17.012c0,10.131-7.52,18.503-18.824,18.503
		c-12.851,0-18.342-9.651-18.342-17.81C211.635,51.269,217.285,40.87,230.244,40.87z M231.311,74.52
		c4.214,0,12.691-2.24,12.691-15.358c0-10.878-6.612-16.583-14.025-16.583c-7.839,0-13.489,4.905-13.489,14.769
		C216.487,67.906,222.831,74.52,231.311,74.52z"/>
	<path d="M258.616,54.628c0-7.039,0-8.318-0.104-9.757c-0.106-1.547-0.374-2.292-1.921-2.506c-0.374-0.054-1.174-0.108-1.6-0.108
		c-0.16,0-0.373-0.213-0.373-0.372c0-0.268,0.213-0.374,0.747-0.374c2.132,0,5.012,0.106,5.278,0.106
		c0.427,0,3.254-0.106,4.64-0.106c0.533,0,0.746,0.106,0.746,0.374c0,0.159-0.161,0.372-0.372,0.372c-0.321,0-0.587,0-1.175,0.108
		c-1.227,0.266-1.546,0.906-1.652,2.506c-0.106,1.439-0.106,2.719-0.106,9.757v2.719h0.213c0.748-0.852,9.119-9.116,10.879-10.931
		c1.332-1.333,2.559-2.506,2.559-3.251c0-0.586-0.211-0.854-0.585-0.908c-0.268-0.052-0.428-0.265-0.428-0.426
		c0-0.213,0.213-0.32,0.534-0.32c0.96,0,2.399,0.106,3.519,0.106c0.267,0,3.359-0.106,4.533-0.106c0.48,0,0.693,0.106,0.693,0.32
		c0,0.213-0.106,0.374-0.48,0.374c-0.693,0-1.706,0.267-2.614,0.639c-1.919,0.854-2.825,1.867-4.905,3.84
		c-1.171,1.067-9.171,8.745-10.186,9.865c1.228,1.334,10.985,11.092,12.906,12.852c3.946,3.519,4.479,4.105,6.718,5.012
		c1.226,0.48,2.56,0.641,2.88,0.641c0.319,0,0.586,0.161,0.586,0.374s-0.213,0.372-1.013,0.372h-2.398c-1.335,0-2.187,0-3.254-0.106
		c-2.453-0.213-3.679-1.227-5.704-2.773c-2.135-1.651-12.001-12.051-14.239-14.717h-0.213v4.427c0,4.372,0,7.945,0.213,9.812
		c0.161,1.333,0.374,2.187,1.813,2.399c0.642,0.106,1.387,0.213,1.814,0.213c0.266,0,0.374,0.213,0.374,0.374
		c0,0.213-0.215,0.372-0.747,0.372c-2.293,0-5.12-0.159-5.494-0.159c-0.372,0-3.199,0.159-4.638,0.159
		c-0.48,0-0.748-0.106-0.748-0.372c0-0.161,0.106-0.374,0.374-0.374c0.426,0,1.013-0.106,1.44-0.213
		c0.904-0.213,1.013-1.066,1.227-2.399c0.265-1.866,0.265-5.439,0.265-9.812V54.628z"/>
	<path d="M301.015,42.417c0.587-1.493,0.8-1.76,1.119-1.76c0.48,0,0.64,0.641,1.12,1.654c0.854,1.919,8.371,20.637,11.252,27.515
		c1.706,4.054,2.984,4.64,3.999,4.962c0.693,0.211,1.387,0.265,1.867,0.265c0.267,0,0.586,0.106,0.586,0.374
		c0,0.266-0.534,0.372-1.066,0.372c-0.693,0-4.16,0-7.413-0.106c-0.906-0.053-1.651-0.053-1.651-0.32
		c0-0.213,0.106-0.213,0.319-0.319c0.268-0.106,0.745-0.479,0.426-1.226l-4.212-10.398c-0.108-0.213-0.16-0.268-0.428-0.268h-10.824
		c-0.214,0-0.372,0.106-0.48,0.374l-2.665,7.252c-0.428,1.119-0.693,2.238-0.693,3.04c0,0.906,0.8,1.226,1.6,1.226h0.427
		c0.373,0,0.479,0.161,0.479,0.374c0,0.266-0.267,0.372-0.693,0.372c-1.119,0-3.679-0.159-4.213-0.159
		c-0.48,0-2.825,0.159-4.745,0.159c-0.586,0-0.908-0.106-0.908-0.372c0-0.213,0.216-0.374,0.429-0.374
		c0.319,0,1.013-0.054,1.386-0.106c2.133-0.267,3.039-1.866,3.947-4.159L301.015,42.417z M306.239,61.294
		c0.213,0,0.213-0.106,0.161-0.32l-4.64-12.424c-0.266-0.693-0.533-0.693-0.8,0l-4.373,12.424c-0.052,0.214,0,0.32,0.161,0.32
		H306.239z"/>
	<path d="M333.972,62.628c0,4.372,0,7.945,0.215,9.812c0.158,1.333,0.373,2.187,1.813,2.399c0.639,0.106,1.706,0.213,2.132,0.213
		c0.321,0,0.374,0.213,0.374,0.374c0,0.213-0.214,0.372-0.746,0.372c-2.56,0-5.546-0.159-5.813-0.159
		c-0.213,0-3.466,0.159-4.853,0.159c-0.532,0-0.745-0.106-0.745-0.372c0-0.161,0.106-0.321,0.374-0.321
		c0.426,0,0.958-0.106,1.384-0.213c0.961-0.213,1.228-1.119,1.387-2.452c0.215-1.866,0.215-5.439,0.215-9.812V43.591l-6.773,0.106
		c-2.932,0.052-4.051,0.374-4.744,1.438c-0.534,0.802-0.589,1.122-0.748,1.441c-0.106,0.374-0.267,0.426-0.479,0.426
		c-0.106,0-0.32-0.106-0.32-0.372c0-0.48,0.906-4.533,1.014-4.907c0.054-0.268,0.319-0.854,0.479-0.854
		c0.319,0,0.8,0.374,2.08,0.534c1.332,0.159,3.146,0.213,3.679,0.213h17.705c1.546,0,2.612-0.106,3.358-0.213
		c0.693-0.106,1.121-0.213,1.334-0.213s0.213,0.265,0.213,0.533c0,1.386-0.161,4.64-0.161,5.172c0,0.374-0.213,0.587-0.426,0.587
		s-0.319-0.159-0.374-0.8l-0.052-0.48c-0.161-1.387-1.174-2.399-5.654-2.506l-5.865-0.106V62.628z"/>
	<path d="M384.899,62.628c0,4.372,0.055,7.945,0.268,9.812c0.159,1.333,0.268,2.187,1.706,2.399c0.641,0.106,1.706,0.213,2.08,0.213
		c0.319,0,0.426,0.213,0.426,0.374c0,0.213-0.268,0.372-0.8,0.372c-2.561,0-5.544-0.159-5.812-0.159
		c-0.215,0-3.253,0.159-4.64,0.159c-0.532,0-0.747-0.106-0.747-0.372c0-0.161,0.106-0.374,0.373-0.374
		c0.427,0,0.961-0.106,1.387-0.213c0.961-0.213,1.121-1.121,1.28-2.453c0.213-1.867,0.213-5.279,0.213-9.651v-4.533
		c0-0.213-0.106-0.268-0.266-0.268h-19.571c-0.159,0-0.266,0.055-0.266,0.268v4.533c0,4.372,0,7.839,0.213,9.705
		c0.159,1.333,0.32,2.187,1.706,2.399c0.693,0.106,1.706,0.213,2.135,0.213c0.265,0,0.371,0.213,0.371,0.374
		c0,0.213-0.213,0.372-0.747,0.372c-2.612,0-5.599-0.159-5.812-0.159c-0.266,0-3.253,0.159-4.692,0.159
		c-0.479,0-0.745-0.106-0.745-0.372c0-0.161,0.104-0.374,0.372-0.374c0.426,0,1.013-0.106,1.44-0.213
		c0.906-0.213,1.013-1.066,1.226-2.399c0.266-1.866,0.266-5.439,0.266-9.812v-8c0-7.039,0-8.318-0.104-9.757
		c-0.106-1.547-0.374-2.292-1.921-2.506c-0.374-0.054-1.174-0.108-1.6-0.108c-0.161,0-0.372-0.213-0.372-0.372
		c0-0.268,0.211-0.374,0.746-0.374c2.132,0,5.119,0.106,5.385,0.106c0.213,0,3.199-0.106,4.64-0.106
		c0.532,0,0.746,0.106,0.746,0.374c0,0.159-0.214,0.372-0.372,0.372c-0.321,0-0.641,0-1.174,0.108
		c-1.279,0.266-1.547,0.906-1.653,2.506c-0.053,1.439-0.053,2.825-0.053,9.865v0.96c0,0.266,0.106,0.266,0.266,0.266h19.571
		c0.159,0,0.266,0,0.266-0.266v-0.96c0-7.04-0.055-8.426-0.106-9.865c-0.106-1.547-0.319-2.292-1.867-2.506
		c-0.371-0.054-1.173-0.108-1.6-0.108c-0.213,0-0.373-0.213-0.373-0.372c0-0.268,0.215-0.374,0.747-0.374
		c2.08,0,5.118,0.106,5.333,0.106c0.268,0,3.251-0.106,4.638-0.106c0.534,0,0.802,0.106,0.802,0.374
		c0,0.159-0.215,0.372-0.428,0.372c-0.319,0-0.587,0-1.174,0.108c-1.226,0.266-1.493,0.906-1.6,2.506
		c-0.106,1.439-0.106,2.719-0.106,9.757V62.628z"/>
	<path d="M413.966,40.87c10.56,0,18.557,6.454,18.557,17.012c0,10.131-7.518,18.503-18.822,18.503
		c-12.852,0-18.344-9.651-18.344-17.81C395.356,51.269,401.009,40.87,413.966,40.87z M415.032,74.52
		c4.214,0,12.692-2.24,12.692-15.358c0-10.878-6.611-16.583-14.024-16.583c-7.839,0-13.491,4.905-13.491,14.769
		C400.209,67.906,406.555,74.52,415.032,74.52z"/>
	<path d="M444.313,69.612c0.106,3.733,0.532,4.853,1.813,5.175c0.854,0.211,1.919,0.265,2.348,0.265
		c0.213,0,0.371,0.161,0.371,0.374c0,0.266-0.319,0.372-0.852,0.372c-2.667,0-4.533-0.159-4.96-0.159
		c-0.426,0-2.398,0.159-4.533,0.159c-0.478,0-0.745-0.053-0.745-0.372c0-0.213,0.159-0.374,0.374-0.374
		c0.371,0,1.226-0.054,1.919-0.265c1.173-0.322,1.332-1.548,1.332-5.654V43.165c0-1.814,0.268-2.294,0.641-2.294
		c0.533,0,1.333,0.908,1.813,1.386c0.748,0.748,7.572,8,14.824,15.466c4.64,4.799,9.651,10.184,11.092,11.677l-0.48-22.716
		c-0.053-2.934-0.319-3.946-1.758-4.212c-0.854-0.161-1.922-0.215-2.295-0.215c-0.319,0-0.372-0.265-0.372-0.426
		c0-0.268,0.372-0.32,0.906-0.32c2.132,0,4.372,0.106,4.905,0.106c0.534,0,2.079-0.106,4.001-0.106c0.478,0,0.852,0.052,0.852,0.32
		c0,0.161-0.213,0.426-0.532,0.426c-0.213,0-0.587,0-1.119,0.108c-1.548,0.32-1.654,1.226-1.654,3.945l-0.106,26.557
		c0,2.985-0.054,3.251-0.374,3.251c-0.479,0-0.96-0.372-3.572-2.771c-0.48-0.428-7.252-7.093-12.211-12.265
		c-5.439-5.705-10.719-11.251-12.159-12.851L444.313,69.612z"/>
</g>
<path d="M59.761,3.837L4.154,59.442l55.607,55.606l55.605-55.606L59.761,3.837z M59.73,103.647L14.985,58.902L59.73,14.157
	l44.744,44.746L59.73,103.647z"/>
<path d="M59.945,22.311L22.814,59.442l37.131,37.131l37.131-37.131L59.945,22.311z M31.611,59.803l28.334-28.334l28.334,28.334
	L59.945,88.137L31.611,59.803z"/>
<rect x="48.303" y="47.79" transform="matrix(-0.7071 0.7071 -0.7071 -0.7071 145.0394 59.3554)" width="23.849" height="23.849"/>
</svg>
